<svg width="321" height="175" viewBox="0 0 321 175" fill="none" xmlns="http://www.w3.org/2000/svg">
<path d="M257 75.4C263.296 75.4 268.4 70.2961 268.4 64C268.4 57.704 263.296 52.6 257 52.6C250.704 52.6 245.6 57.704 245.6 64C245.6 70.2961 250.704 75.4 257 75.4Z" fill="#61DAFB"/>
<path d="M300.3 45.2C298.1 44.4 295.8 43.6 293.4 42.9C294 40.5 294.5 38.1 294.9 35.8C297 22.6 294.7 13.3 288.3 9.70001C286.4 8.60001 284.3 8.10001 281.9 8.10001C274.9 8.10001 266 13.3 257 22C248 13.3 239.1 8.10001 232.1 8.10001C229.7 8.10001 227.6 8.60001 225.7 9.70001C219.3 13.4 217 22.7 219.1 35.8C219.5 38.1 220 40.5 220.6 42.9C218.2 43.6 215.9 44.3 213.7 45.2C201.2 50 194.4 56.6 194.4 64C194.4 71.4 201.3 78 213.7 82.8C215.9 83.6 218.2 84.4 220.6 85.1C220 87.5 219.5 89.9 219.1 92.2C217 105.4 219.3 114.7 225.7 118.3C227.6 119.4 229.7 119.9 232.1 119.9C239.2 119.9 248.1 114.7 257 106C266 114.7 274.9 119.9 281.9 119.9C284.3 119.9 286.4 119.4 288.3 118.3C294.7 114.6 297 105.3 294.9 92.2C294.5 89.9 294 87.5 293.4 85.1C295.8 84.4 298.1 83.7 300.3 82.8C312.8 78 319.6 71.4 319.6 64C319.6 56.6 312.8 50 300.3 45.2ZM285.5 14.7C289.6 17.1 291 24.5 289.3 35C289 37.1 288.5 39.3 287.9 41.6C282.7 40.4 277.2 39.6 271.4 39.1C268 34.3 264.5 30 261 26.1C268.4 18.8 275.9 13.8 282 13.8C283.3 13.8 284.5 14.1 285.5 14.7ZM274.3 74C272.5 77.2 270.4 80.4 268.2 83.6C264.5 83.9 260.8 84 257 84C253.1 84 249.4 83.9 245.8 83.6C243.6 80.4 241.6 77.2 239.8 74C237.9 70.7 236.1 67.3 234.5 64C236.1 60.7 237.9 57.3 239.8 54C241.6 50.8 243.7 47.6 245.9 44.4C249.6 44.1 253.3 44 257.1 44C261 44 264.7 44.1 268.3 44.4C270.5 47.6 272.5 50.8 274.3 54C276.2 57.3 278 60.7 279.6 64C277.9 67.3 276.2 70.6 274.3 74ZM282.6 70.7C284.1 74.2 285.3 77.6 286.4 81C283 81.8 279.4 82.4 275.6 82.9C276.8 81 278.1 79 279.2 76.9C280.4 74.8 281.5 72.7 282.6 70.7ZM257 97.8C254.6 95.2 252.3 92.4 250.1 89.5C252.4 89.6 254.7 89.7 257 89.7C259.3 89.7 261.6 89.6 263.9 89.5C261.7 92.4 259.4 95.2 257 97.8ZM238.4 82.8C234.6 82.3 231 81.7 227.6 80.9C228.7 77.6 229.9 74.1 231.4 70.6C232.5 72.6 233.6 74.7 234.8 76.7C236 78.9 237.2 80.8 238.4 82.8ZM231.4 57.3C229.9 53.8 228.7 50.4 227.6 47C231 46.2 234.6 45.6 238.4 45.1C237.2 47 235.9 49 234.8 51.1C233.6 53.2 232.5 55.3 231.4 57.3ZM257 30.2C259.4 32.8 261.7 35.6 263.9 38.5C261.6 38.4 259.3 38.3 257 38.3C254.7 38.3 252.4 38.4 250.1 38.5C252.3 35.6 254.6 32.8 257 30.2ZM279.2 51.2L275.6 45.2C279.4 45.7 283 46.3 286.4 47.1C285.3 50.4 284.1 53.9 282.6 57.4C281.5 55.3 280.4 53.2 279.2 51.2ZM224.7 35C223 24.5 224.4 17.1 228.5 14.7C229.5 14.1 230.7 13.8 232 13.8C238 13.8 245.5 18.7 253 26.1C249.5 29.9 246 34.3 242.6 39.1C236.8 39.6 231.3 40.5 226.1 41.6C225.5 39.3 225.1 37.1 224.7 35ZM200 64C200 59.3 205.7 54.3 215.7 50.6C217.7 49.8 219.9 49.1 222.1 48.5C223.7 53.5 225.7 58.8 228.1 64.1C225.7 69.4 223.6 74.6 222.1 79.6C208.3 75.6 200 69.6 200 64ZM228.5 113.3C224.4 110.9 223 103.5 224.7 93C225 90.9 225.5 88.7 226.1 86.4C231.3 87.6 236.8 88.4 242.6 88.9C246 93.7 249.5 98 253 101.9C245.6 109.2 238.1 114.2 232 114.2C230.7 114.2 229.5 113.9 228.5 113.3ZM289.3 93C291 103.5 289.6 110.9 285.5 113.3C284.5 113.9 283.3 114.2 282 114.2C276 114.2 268.5 109.3 261 101.9C264.5 98.1 268 93.7 271.4 88.9C277.2 88.4 282.7 87.5 287.9 86.4C288.5 88.7 288.9 90.9 289.3 93ZM298.3 77.4C296.3 78.2 294.1 78.9 291.9 79.5C290.3 74.5 288.3 69.2 285.9 63.9C288.3 58.6 290.4 53.4 291.9 48.4C305.7 52.4 314 58.4 314 64C314 68.7 308.2 73.7 298.3 77.4Z" fill="#61DAFB"/>
<path fill-rule="evenodd" clip-rule="evenodd" d="M109.682 14.737C97.476 8.714 84.974 8.101 72.174 12.626C60.395 16.79 50.999 24.241 44.014 34.389C32.195 51.561 23.61 70.298 18.799 90.652C16.335 101.069 14.739 112.118 15.168 122.876C15.203 123.749 15.333 124 15.419 126H75.785C75.612 124 75.498 124.584 75.348 124.203C72.1582 116.031 69.6731 107.601 67.92 99.005C65.422 86.754 64.114 74.276 66.694 61.912C70.305 44.599 80.174 32.107 96.811 25.629C106.235 21.962 115.18 23.005 123.025 29.891C123.097 29.954 123.245 29.916 123.437 29.947L126.002 26.064C121.062 21.361 115.634 17.675 109.682 14.737ZM3.336 94.394C2.876 98.317 2.446 101.99 1.996 105.845L13.128 107.181L15.167 95.288L3.336 94.394ZM25.186 60.208L14.715 56.111L11.331 65.718L22.002 69.138C23.082 66.107 24.098 63.256 25.186 60.208ZM74.605 113.867C78.18 114.133 81.762 114.316 85.708 114.546C84.275 111.567 83.002 108.873 81.669 106.211C81.523 105.922 81.03 105.643 80.695 105.638C77.662 105.594 74.627 105.613 71.404 105.613C72.13 108.241 72.761 110.666 73.5 113.056C73.611 113.417 74.207 113.838 74.605 113.867ZM42.933 31.103L34.978 25.835L28.619 32.94L36.797 38.436L42.933 31.103ZM68.267 84.472C68.254 84.793 68.543 85.304 68.825 85.431C71.69 86.719 74.585 87.946 77.737 89.304C77.606 86.812 77.518 84.729 77.369 82.65C77.342 82.276 77.166 81.738 76.889 81.584C74.258 80.128 71.59 78.737 68.673 77.189C68.514 79.854 68.352 82.161 68.267 84.472ZM65.91 12.3L60.464 6.119L52.965 10.017L58.42 16.661L65.91 12.3ZM69.325 61.476C69.162 61.85 69.377 62.643 69.698 62.932C71.873 64.894 74.122 66.772 76.624 68.913C77.197 66.513 77.737 64.374 78.195 62.22C78.276 61.837 78.163 61.204 77.897 60.99C75.951 59.421 73.942 57.927 71.86 56.339C70.945 58.154 70.058 59.782 69.325 61.476ZM81.775 9.052C84.555 9.127 87.338 9.094 90.274 9.094C89.981 7.05 89.841 5.501 89.492 4.002C89.388 3.556 88.717 2.962 88.264 2.924C85.477 2.698 82.679 2.611 79.613 2.465C80.022 4.528 80.334 6.346 80.775 8.133C80.868 8.512 81.422 9.042 81.775 9.052ZM85.16 44.727C85.302 44.461 85.338 43.978 85.189 43.746C83.823 41.609 82.404 39.505 80.935 37.291L76.175 41.663L82.757 48.957C83.641 47.418 84.432 46.089 85.16 44.727ZM90.295 30.2L93.138 35.481C97.587 33.043 98.013 32.161 96.438 28.647L90.295 30.2ZM111.582 13.927C113.433 15.069 115.388 16.042 117.374 17.112L118.704 15.042C116.282 13.271 113.944 11.558 111.291 9.616C111.187 10.72 111.032 11.491 111.072 12.253C111.104 12.834 111.201 13.693 111.582 13.927ZM109 30.646C111 30.863 114 31.07 116 31.289V28.571C114 28.133 111 27.699 109 27.248V30.646Z" fill="#CC0000"/>
<path d="M27.625 174.094C26.125 174.094 25.375 173.688 25.375 172.875V136.781C25.375 136.198 25.5104 135.781 25.7812 135.531C26.0521 135.26 26.4792 135.125 27.0625 135.125H36.4062C40.8438 135.125 44.1771 135.906 46.4062 137.469C48.6562 139.031 49.7812 141.521 49.7812 144.938C49.7812 147.25 49.2188 149.198 48.0938 150.781C46.9896 152.344 45.4271 153.521 43.4062 154.312V154.531C44.4896 154.906 45.375 155.635 46.0625 156.719C46.7708 157.781 47.5521 159.365 48.4062 161.469L52.75 172.438C52.8542 172.812 52.9062 173.073 52.9062 173.219C52.9062 173.802 52.125 174.094 50.5625 174.094H50C49.4375 174.094 48.9479 174.021 48.5312 173.875C48.1354 173.708 47.8854 173.49 47.7812 173.219L43.5625 162.312C43.0208 160.896 42.3854 159.792 41.6562 159C40.9271 158.208 40.0625 157.656 39.0625 157.344C38.0625 157.031 36.8021 156.875 35.2812 156.875H30.2812V172.875C30.2812 173.688 29.5417 174.094 28.0625 174.094H27.625ZM37.5938 152.656C38.9062 152.656 40.1042 152.344 41.1875 151.719C42.2917 151.094 43.1562 150.26 43.7812 149.219C44.4271 148.156 44.75 147.031 44.75 145.844C44.75 143.656 44.0833 142.031 42.75 140.969C41.4167 139.885 39.5729 139.344 37.2188 139.344H30.2812V152.656H37.5938ZM100.094 170.062C100.323 170.062 100.531 170.229 100.719 170.562C100.906 170.896 101.042 171.281 101.125 171.719C101.229 172.135 101.281 172.448 101.281 172.656C101.281 173.76 99.9271 174.312 97.2188 174.312C94.7188 174.312 92.8229 173.521 91.5312 171.938C90.4271 172.604 89.1042 173.167 87.5625 173.625C86.0417 174.083 84.3542 174.312 82.5 174.312C80.4792 174.312 78.5208 173.917 76.625 173.125C74.75 172.333 73.1875 171.073 71.9375 169.344C70.7083 167.615 70.0938 165.406 70.0938 162.719C70.0938 160.865 70.4271 159.219 71.0938 157.781C71.7812 156.344 72.6562 155.188 73.7188 154.312C74.8021 153.417 75.9375 152.812 77.125 152.5V152.25C75.4583 151.625 74.0833 150.604 73 149.188C71.9167 147.75 71.375 146.052 71.375 144.094C71.375 142.073 71.8542 140.365 72.8125 138.969C73.7708 137.552 75.0938 136.5 76.7812 135.812C78.4688 135.104 80.4062 134.75 82.5938 134.75C83.8021 134.75 84.8854 134.885 85.8438 135.156C86.8229 135.427 87.3125 135.896 87.3125 136.562C87.3125 136.708 87.2604 137.01 87.1562 137.469C87.0729 137.906 86.9375 138.323 86.75 138.719C86.5833 139.094 86.3646 139.281 86.0938 139.281C86.0521 139.281 85.8229 139.24 85.4062 139.156C84.3854 138.885 83.4896 138.75 82.7188 138.75C80.1562 138.75 78.4062 139.354 77.4688 140.562C76.5312 141.771 76.0625 143.125 76.0625 144.625C76.0625 145.646 76.3229 146.677 76.8438 147.719C77.3646 148.74 78.1771 149.604 79.2812 150.312C80.4062 151 81.8021 151.344 83.4688 151.344H90.0312L90.7188 145.469C90.7812 144.656 91.3646 144.25 92.4688 144.25H93.0625C93.6042 144.25 94.0104 144.365 94.2812 144.594C94.5729 144.802 94.7188 145.094 94.7188 145.469V151.344H99.375C99.7708 151.344 100.052 151.479 100.219 151.75C100.385 152 100.469 152.417 100.469 153V153.688C100.469 154.25 100.385 154.667 100.219 154.938C100.052 155.208 99.7708 155.344 99.375 155.344H94.7188V166.219C94.7188 167.74 94.9896 168.802 95.5312 169.406C96.0729 170.01 96.8021 170.312 97.7188 170.312C98.4062 170.312 98.9375 170.271 99.3125 170.188C99.7083 170.104 99.9688 170.062 100.094 170.062ZM74.9375 162.656C74.9375 164.531 75.3438 166.042 76.1562 167.188C76.9896 168.333 78.0104 169.146 79.2188 169.625C80.4271 170.083 81.6667 170.312 82.9375 170.312C84.1667 170.312 85.3958 170.125 86.625 169.75C87.875 169.354 89.0417 168.875 90.125 168.312C90.0625 167.771 90.0312 167.219 90.0312 166.656V155.344H83.25C80.5625 155.344 78.5 155.896 77.0625 157C75.6458 158.083 74.9375 159.969 74.9375 162.656ZM123 174.094C121.5 174.094 120.75 173.688 120.75 172.875V136.781C120.75 136.198 120.885 135.781 121.156 135.531C121.427 135.26 121.854 135.125 122.438 135.125H131.781C136.219 135.125 139.552 135.906 141.781 137.469C144.031 139.031 145.156 141.521 145.156 144.938C145.156 147.25 144.594 149.198 143.469 150.781C142.365 152.344 140.802 153.521 138.781 154.312V154.531C139.865 154.906 140.75 155.635 141.438 156.719C142.146 157.781 142.927 159.365 143.781 161.469L148.125 172.438C148.229 172.812 148.281 173.073 148.281 173.219C148.281 173.802 147.5 174.094 145.938 174.094H145.375C144.812 174.094 144.323 174.021 143.906 173.875C143.51 173.708 143.26 173.49 143.156 173.219L138.938 162.312C138.396 160.896 137.76 159.792 137.031 159C136.302 158.208 135.438 157.656 134.438 157.344C133.438 157.031 132.177 156.875 130.656 156.875H125.656V172.875C125.656 173.688 124.917 174.094 123.438 174.094H123ZM132.969 152.656C134.281 152.656 135.479 152.344 136.562 151.719C137.667 151.094 138.531 150.26 139.156 149.219C139.802 148.156 140.125 147.031 140.125 145.844C140.125 143.656 139.458 142.031 138.125 140.969C136.792 139.885 134.948 139.344 132.594 139.344H125.656V152.656H132.969ZM183.75 174.312C177.667 174.312 173.167 172.708 170.25 169.5C167.333 166.292 165.875 161.302 165.875 154.531C165.875 141.344 171.865 134.75 183.844 134.75C185.594 134.75 187.292 134.938 188.938 135.312C190.583 135.667 191.917 136.115 192.938 136.656C193.958 137.198 194.469 137.719 194.469 138.219C194.469 138.531 194.354 138.948 194.125 139.469C193.917 139.99 193.667 140.448 193.375 140.844C193.083 141.24 192.823 141.438 192.594 141.438C192.49 141.438 192.198 141.302 191.719 141.031C190.635 140.448 189.5 139.958 188.312 139.562C187.125 139.167 185.677 138.969 183.969 138.969C179.49 138.969 176.188 140.219 174.062 142.719C171.958 145.198 170.906 149.156 170.906 154.594C170.906 159.906 171.948 163.823 174.031 166.344C176.135 168.844 179.375 170.094 183.75 170.094C185.583 170.094 187.156 169.875 188.469 169.438C189.781 169 191.042 168.458 192.25 167.812C192.833 167.5 193.188 167.344 193.312 167.344C193.542 167.344 193.802 167.542 194.094 167.938C194.406 168.333 194.677 168.781 194.906 169.281C195.135 169.76 195.25 170.104 195.25 170.312C195.25 170.833 194.719 171.417 193.656 172.062C192.615 172.688 191.208 173.219 189.438 173.656C187.688 174.094 185.792 174.312 183.75 174.312ZM204.75 174.094C203.25 174.094 202.5 173.688 202.5 172.875V136.219C202.5 135.385 203.25 134.969 204.75 134.969H205.188C206.667 134.969 207.406 135.385 207.406 136.219V151.938H227.531V136.219C227.531 135.385 228.271 134.969 229.75 134.969H230.188C231.667 134.969 232.406 135.385 232.406 136.219V172.875C232.406 173.292 232.229 173.604 231.875 173.812C231.521 174 230.958 174.094 230.188 174.094H229.75C228.979 174.094 228.417 174 228.062 173.812C227.708 173.604 227.531 173.292 227.531 172.875V156.156H207.406V172.875C207.406 173.688 206.667 174.094 205.188 174.094H204.75ZM240.938 174.094C240.104 174.094 239.5 174.021 239.125 173.875C238.75 173.708 238.562 173.469 238.562 173.156C238.562 173.01 238.615 172.76 238.719 172.406L251.875 135.875C252.083 135.271 252.823 134.969 254.094 134.969H255.719C256.99 134.969 257.729 135.271 257.938 135.875L271.094 172.438C271.198 172.667 271.25 172.906 271.25 173.156C271.25 173.781 270.469 174.094 268.906 174.094H268.438C267.146 174.094 266.396 173.802 266.188 173.219L262.938 164.094H246.625L243.438 173.219C243.25 173.802 242.51 174.094 241.219 174.094H240.938ZM261.438 159.875L255.625 143.344C255.458 142.885 255.323 142.365 255.219 141.781C255.115 141.198 255.021 140.635 254.938 140.094H254.812C254.562 141.49 254.281 142.573 253.969 143.344L248.156 159.875H261.438ZM284.812 174.094C284.042 174.094 283.479 174 283.125 173.812C282.771 173.604 282.594 173.292 282.594 172.875V139.344H271.906C271.51 139.344 271.229 139.208 271.062 138.938C270.896 138.667 270.812 138.25 270.812 137.688V136.781C270.812 136.198 270.896 135.781 271.062 135.531C271.229 135.26 271.51 135.125 271.906 135.125H297.969C298.365 135.125 298.646 135.26 298.812 135.531C298.979 135.781 299.062 136.198 299.062 136.781V137.688C299.062 138.25 298.979 138.667 298.812 138.938C298.646 139.208 298.365 139.344 297.969 139.344H287.5V172.875C287.5 173.688 286.75 174.094 285.25 174.094H284.812Z" fill="white"/>
</svg>
